<?xml version="1.0" encoding="utf-8"?>
<!-- Generator: Adobe Illustrator 15.1.0, SVG Export Plug-In . SVG Version: 6.00 Build 0)  -->
<!DOCTYPE svg PUBLIC "-//W3C//DTD SVG 1.1//EN" "http://www.w3.org/Graphics/SVG/1.1/DTD/svg11.dtd">
<svg version="1.1" id="Layer_1" xmlns="http://www.w3.org/2000/svg" xmlns:xlink="http://www.w3.org/1999/xlink" x="0px" y="0px"
	 width="300px" height="300px" viewBox="0 0 300 300" enable-background="new 0 0 300 300" xml:space="preserve">
<circle fill="#3B86C7" cx="149.999" cy="149.999" r="148.06"/>
<path fill="#FFFFFF" d="M173.825,245.299c0,13.157-10.668,23.824-23.824,23.824l0,0c-13.158,0-23.825-10.667-23.825-23.824V54.701
	c0-13.159,10.667-23.825,23.825-23.825l0,0c13.156,0,23.824,10.666,23.824,23.825V245.299z"/>
<path fill="#FFFFFF" d="M54.701,173.824c-13.157,0-23.824-10.669-23.824-23.824l0,0c0-13.158,10.667-23.825,23.824-23.825H245.3
	c13.157,0,23.824,10.667,23.824,23.825l0,0c0,13.155-10.667,23.824-23.824,23.824H54.701z"/>
</svg>
